<?xml version="1.0" encoding="UTF-8"?>
<svg id="Layer_1" data-name="Layer 1" xmlns="http://www.w3.org/2000/svg" viewBox="0 0 790.77 179.75">
  <defs>
    <style>
      .cls-1 {
        fill: #436496;
      }
    </style>
  </defs>
  <rect x="256.53" y="155.09" width="2.13" height="24.3"/>
  <polygon points="278.34 179.38 276.28 179.38 276.28 154.76 276.83 154.76 294.3 174.8 294.45 174.8 294.45 155.09 296.5 155.09 296.5 179.64 295.95 179.64 278.45 159.5 278.34 159.5 278.34 179.38"/>
  <polygon points="329.29 157 321.37 157 321.37 179.38 319.2 179.38 319.2 157 311.2 157 311.2 155.09 329.29 155.09 329.29 157"/>
  <polygon points="360.18 177.44 360.18 179.39 343.99 179.39 343.99 155.09 359.19 155.09 359.19 157 346.15 157 346.15 165.59 358.26 165.59 358.26 167.49 346.15 167.49 346.15 177.44 360.18 177.44"/>
  <path d="m393.11,179.38h-2.94l-9.17-10.2v-.37c2.83-.04,4.99-.66,6.46-1.84,1.5-1.21,2.24-2.6,2.24-4.25,0-3.64-2.53-5.76-6.31-5.76h-5.84v22.42h-2.17v-24.26h8.3c2.17,0,4.04.66,5.69,2.02,1.65,1.32,2.49,3.16,2.49,5.5,0,1.84-.7,3.49-2.05,4.92-1.36,1.43-3.12,2.27-5.36,2.57l8.66,9.25Z"/>
  <polygon points="410.12 179.38 408.06 179.38 408.06 154.76 408.62 154.76 426.08 174.8 426.23 174.8 426.23 155.09 428.29 155.09 428.29 179.64 427.73 179.64 410.23 159.5 410.12 159.5 410.12 179.38"/>
  <path d="m462.14,179.38l-2.5-5.91h-12l-2.49,5.91h-2.16l10.45-24.48h.52l10.38,24.48h-2.21Zm-8.59-19.93l-5.14,12.22h10.46l-5.18-12.22h-.15Z"/>
  <polygon points="491.99 157 484.07 157 484.07 179.38 481.91 179.38 481.91 157 473.91 157 473.91 155.09 491.99 155.09 491.99 157"/>
  <rect x="507.06" y="155.09" width="2.13" height="24.3"/>
  <path d="m529.05,176.23c-2.23-2.35-3.34-5.36-3.34-8.99s1.21-6.46,3.63-8.88c2.46-2.42,5.4-3.63,8.85-3.63s6.49,1.21,8.84,3.63c2.35,2.39,3.52,5.36,3.52,8.88s-1.17,6.53-3.52,8.92c-2.31,2.39-5.29,3.6-8.84,3.6-3.85,0-6.9-1.17-9.14-3.52m1.65-1.4c1.87,1.98,4.36,2.97,7.48,2.97s5.51-1.02,7.38-3.04c1.91-2.06,2.86-4.55,2.86-7.52s-.95-5.47-2.9-7.48c-1.91-2.06-4.36-3.08-7.34-3.08s-5.43,1.03-7.38,3.05c-1.91,2.02-2.86,4.55-2.86,7.52s.92,5.62,2.76,7.6"/>
  <polygon points="568.78 179.38 566.73 179.38 566.73 154.76 567.28 154.76 584.75 174.8 584.89 174.8 584.89 155.09 586.95 155.09 586.95 179.64 586.4 179.64 568.89 159.5 568.78 159.5 568.78 179.38"/>
  <path d="m620.8,179.38l-2.5-5.91h-12l-2.5,5.91h-2.16l10.45-24.48h.52l10.38,24.48h-2.21Zm-8.59-19.93l-5.14,12.22h10.46l-5.18-12.22h-.15Z"/>
  <polygon points="637.7 155.09 639.83 155.09 639.83 177.44 653.01 177.44 653.01 179.39 637.7 179.39 637.7 155.09"/>
  <path class="cls-1" d="m537.69.36c-12.36,0-25.19,2.42-38.14,7.2l-3.66,1.35,4.76,14.73,4-1.52c11.27-4.28,22.61-6.46,33.71-6.46,10.37,0,18.31,2.09,23.6,6.2,4.98,3.86,7.5,10.81,7.5,20.64v1.98h-24.16c-35.39,0-53.34,12.52-53.34,37.21,0,12.3,4.79,21.72,14.24,28.02,8.93,5.95,21.33,8.97,36.86,8.97,12.72,0,25.92-2.02,39.24-6l2.9-.87V42.5c0-19.22-8.24-42.14-47.52-42.14m31.77,59.2v40.81c-7.49,2-16.27,3.02-26.17,3.02-35.35,0-35.35-16.33-35.35-21.69s0-22.14,38.04-22.14h23.48Z"/>
  <path class="cls-1" d="m298.67.36c-12.36,0-25.19,2.42-38.14,7.19l-3.66,1.35,4.76,14.73,4-1.52c11.28-4.28,22.62-6.45,33.72-6.45,10.37,0,18.31,2.09,23.6,6.2,4.98,3.86,7.5,10.81,7.5,20.64v1.98h-24.15c-35.39,0-53.34,12.52-53.34,37.22,0,12.29,4.79,21.72,14.24,28.02,8.92,5.95,21.33,8.97,36.86,8.97,12.72,0,25.92-2.02,39.24-6l2.9-.87V42.5c0-19.22-8.24-42.14-47.52-42.14m31.77,100.01c-7.49,2-16.27,3.02-26.17,3.02-35.35,0-35.35-16.33-35.35-21.69s0-22.14,38.04-22.14h23.48v40.81Z"/>
  <path class="cls-1" d="m652.62,3.73c-5.49-1.94-12.42-2.92-20.61-2.92-5.67,0-11.59.71-17.62,2.12-6.07,1.42-10.39,2.76-13.23,4.09l-2.34,1.1v108.56h15.75V18.96c5.86-1.89,11.94-2.85,18.1-2.85,6.47,0,11.49.66,14.9,1.97l3.97,1.52,4.84-14.54-3.77-1.33Z"/>
  <path class="cls-1" d="m773.47.01l-45.26,95.18L682.43.01h-17.29l54.32,113.56-4.81,10.12c-6.36,14.01-11.91,23.58-16.51,28.45-4.16,4.42-9.42,6.56-16.08,6.56-2.97,0-5.6-.59-8.04-1.81l-4.19-2.09-4.94,14.84,3.61,1.4c5.14,1.99,9.58,2.96,13.56,2.96,11.31,0,20.17-3.42,26.33-10.16,5.7-6.24,12.81-18.31,21.76-36.91L790.77.01h-17.3Z"/>
  <path class="cls-1" d="m461.95,107.64h0c10.93-11.73,16.47-26.75,16.47-44.66s-5.54-32.95-16.46-44.74C450.94,6.38,436.47.36,418.94.36s-31.98,5.99-42.92,17.79c-10.87,11.72-16.38,26.8-16.38,44.83s5.51,32.93,16.37,44.65c5.56,6,12.03,10.5,19.34,13.47-.92.17-1.8.37-2.63.58l-3.59.92,2.23,13.81,4.32-1.11c3.49-.9,8.2-1.35,14-1.35,17.97,0,33.47,4.38,46.07,13l4.33,2.96,5.1-14.02-2.61-1.78c-7.47-5.1-15.91-8.84-25.24-11.2,9.5-2.79,17.74-7.9,24.63-15.28m-43,3.35c-13.62,0-24.16-4.35-32.19-13.29-8.04-8.94-12.11-20.62-12.11-34.71s4.08-25.81,12.12-34.82c8.04-9,18.57-13.38,32.18-13.38s24.32,4.38,32.36,13.38c8.05,9.01,12.13,20.73,12.13,34.82s-4.08,25.77-12.12,34.72c-8.04,8.94-18.63,13.29-32.37,13.29"/>
  <polygon class="cls-1" points="121.27 0 97.19 53.68 75.52 102.36 58.86 139.79 41.23 179.43 41.23 179.43 60.52 139.79 78.72 102.36 99.69 59.27 113.22 89.68 118.87 102.36 107.04 102.36 88.83 139.79 135.53 139.81 153.18 179.44 206.46 179.44 188.81 139.81 172.15 102.38 141.04 32.49 127.52 2.48 126.41 0 121.27 0"/>
  <polygon class="cls-1" points="79.88 .01 76.59 7.39 34.3 102.36 17.65 139.79 17.64 139.79 0 179.43 .01 179.43 19.3 139.79 37.5 102.36 80 15.03 87.33 .01 79.88 .01"/>
  <polygon class="cls-1" points="86.89 30.53 54.9 102.36 38.25 139.79 38.24 139.79 20.6 179.43 20.62 179.43 39.9 139.79 58.11 102.36 89.83 37.15 107.9 .01 100.45 0 86.89 30.53"/>
</svg>