<svg fill="none" height="512" viewBox="0 0 24 24" width="512" xmlns="http://www.w3.org/2000/svg"><g fill="#000"><path clip-rule="evenodd" d="m20 7c-1.6569 0-3-1.34315-3-3 0-.53989.1426-1.04647.3922-1.48412-.2934-.06079-.6024-.1068-.9287-.14215-1.1421-.12374-2.5817-.12374-4.4183-.12373h-.0904c-1.8366-.00001-3.27619-.00001-4.41832.12373-1.16554.12628-2.10992.38859-2.91624.97442-.48815.35466-.91743.78394-1.27209 1.27209-.58583.80632-.84814 1.7507-.97442 2.91624-.12374 1.14213-.12374 2.58172-.12373 4.41822v.0905c-.00001 1.8366-.00001 3.2762.12373 4.4183.12628 1.1656.38859 2.1099.97442 2.9163.35466.4881.78394.9174 1.27209 1.272.80632.5859 1.7507.8482 2.91624.9745 1.14211.1237 2.58172.1237 4.41822.1237h.0906c1.8365 0 3.2761 0 4.4182-.1237 1.1656-.1263 2.1099-.3886 2.9163-.9745.4881-.3546.9174-.7839 1.272-1.272.5859-.8064.8482-1.7507.9745-2.9163.1237-1.1421.1237-2.5817.1237-4.4182v-.0906c0-1.8365 0-3.27611-.1237-4.41822-.0354-.3263-.0814-.63525-.1422-.9287-.4376.24961-.9442.39222-1.4841.39222zm-2.6697 1.4695c.3719.18242.5255.63177.3431 1.00365l-1.4604 2.97705c-1.0226 2.0846-4.028 1.9828-4.9072-.1662-.3891-.9513-1.71948-.9964-2.17212-.0736l-1.46033 2.977c-.18242.3719-.63177.5255-1.00365.3431s-.52547-.6318-.34305-1.0037l1.46033-2.977c1.02257-2.08463 4.02802-1.98283 4.90722.1662.3891.9513 1.7195.9964 2.1721.0736l1.4603-2.97705c.1825-.37188.6318-.52547 1.0037-.34305z" fill-rule="evenodd"/><path d="m18 4c0 1.10457.8954 2 2 2s2-.89543 2-2-.8954-2-2-2-2 .89543-2 2z"/></g></svg>