<svg height="511pt" viewBox="0 -26 511.9941 511" width="511pt" xmlns="http://www.w3.org/2000/svg"><path d="m431.816406 37.195312 36.699219-36.699218 43.476563 43.480468-36.699219 36.699219zm0 0"/><path d="m274.449219 238.054688 48.769531-5.308594 12.457031-12.457032-43.46875-43.46875-12.457031 12.457032zm0 0"/><path d="m313.421875 155.613281 97.183594-97.183593 43.476562 43.472656-97.1875 97.183594zm0 0"/><path d="m336.972656 261.429688-89.507812 9.742187h-95.933594v-30.003906h92.390625l4.5625-41.925781h-154.546875v-30.007813h163.414062l106.46875-106.46875h-304.011718c-32.980469 0-59.808594 26.828125-59.808594 59.804687v192.03125c0 32.980469 26.828125 59.808594 59.808594 59.808594h16.179687v85.898438l128.300781-85.898438h167.042969c32.976563 0 59.804688-26.828125 59.804688-59.808594v-147.335937zm-209.695312 9.742187h-33.339844v-30.003906h33.339844zm0 0"/></svg>