<?xml version="1.0" encoding="iso-8859-1"?>
<!-- Generator: Adobe Illustrator 19.0.0, SVG Export Plug-In . SVG Version: 6.00 Build 0)  -->
<svg version="1.1" id="Capa_1" xmlns="http://www.w3.org/2000/svg" xmlns:xlink="http://www.w3.org/1999/xlink" x="0px" y="0px"
	 viewBox="0 0 419.413 419.413" style="enable-background:new 0 0 419.413 419.413;" xml:space="preserve">
<g>
	<g>
		<path d="M344.536,0.321c-0.001,0-0.002,0-0.003,0h-51.84c-16.715-0.126-32.944,5.611-45.867,16.213
			c-4.361,3.433-8.3,7.372-11.733,11.733c-2.779,3.69-5.343,7.536-7.68,11.52l-1.067,2.133c-1.79,4.189-3.148,8.549-4.053,13.013
			c0,0-1.707,1.493-1.92,2.56c-1.296,5.451-1.94,11.037-1.92,16.64v125.013H344.32c5.024-0.041,10.03-0.613,14.933-1.707h2.773
			c4.024-0.385,7.936-1.544,11.52-3.413h1.28c8.862-4.381,16.822-10.387,23.467-17.707c12.176-13.208,19.018-30.464,19.2-48.427
			v-53.76C417.73,33.605,385.065,0.557,344.536,0.321z M366.08,109.121h-38.613v38.827H308.48v-38.827h-38.827l-0.213-18.773h39.04
			v-39.04h18.987v39.04h38.613V109.121z"/>
	</g>
</g>
<g>
	<g>
		<polygon points="0,198.934 0,259.521 199.04,143.894 199.04,135.574 199.04,126.188 199.04,83.308 		"/>
	</g>
</g>
<g>
	<g>
		<path d="M208.64,2.454L0,123.414v53.76l200.533-117.12c0.038-1.219,0.181-2.432,0.427-3.627c0.723-3.373,1.796-6.662,3.2-9.813
			c0.724-2.22,1.225-4.507,1.493-6.827c2.071-4.454,4.497-8.734,7.253-12.8c0.446-0.813,0.803-1.671,1.067-2.56
			c2.961-4.619,6.315-8.973,10.027-13.013L208.64,2.454z"/>
	</g>
</g>
<g>
	<g>
		<path d="M407.253,193.388c-1.493,1.493-1.92,2.773-3.627,3.2l-2.987,2.133c-1.513,1.097-2.876,2.388-4.053,3.84
			c-1.183,0.767-2.478,1.343-3.84,1.707c-1.88,0.801-3.668,1.802-5.333,2.987l-4.267,1.92c-0.586,0.213-1.102,0.581-1.493,1.067
			l-2.773,1.067c-1.626,0.252-3.281,0.252-4.907,0c-1.714,0.752-3.501,1.323-5.333,1.707h-3.2h-1.92h-5.547h-4.693h-4.907
			l71.04,41.173v-55.253L407.253,193.388z"/>
	</g>
</g>
<g>
	<g>
		<path d="M309.12,218.348l-100.267,0.213c-5.327-0.218-9.596-4.486-9.813-9.813v-42.667L0,282.348v136.747h148.267v-93.653
			c-0.119-5.301,4.081-9.694,9.382-9.813c0.144-0.003,0.288-0.003,0.431,0h101.76c5.053-0.367,9.447,3.432,9.813,8.485
			c0.032,0.442,0.032,0.886,0,1.328v93.653H417.92V282.348L309.12,218.348z"/>
	</g>
</g>
<g>
</g>
<g>
</g>
<g>
</g>
<g>
</g>
<g>
</g>
<g>
</g>
<g>
</g>
<g>
</g>
<g>
</g>
<g>
</g>
<g>
</g>
<g>
</g>
<g>
</g>
<g>
</g>
<g>
</g>
</svg>
