<svg id="svg8" height="32" viewBox="0 0 8.4666665 8.4666669" width="32" xmlns="http://www.w3.org/2000/svg" xmlns:cc="http://creativecommons.org/ns#" xmlns:dc="http://purl.org/dc/elements/1.1/" xmlns:inkscape="http://www.inkscape.org/namespaces/inkscape" xmlns:rdf="http://www.w3.org/1999/02/22-rdf-syntax-ns#" xmlns:sodipodi="http://sodipodi.sourceforge.net/DTD/sodipodi-0.dtd" xmlns:svg="http://www.w3.org/2000/svg"><g id="layer1" fill="#3b3c3d" transform="translate(0 -288.533)"><path id="path8633-3-7-3" d="m4.095413 290.0251-.07338.29404a1.311413 1.3114132 0 0 0 -.2526982.0677l-.2103226-.21807-.2387468.13797.083201.29146a1.311413 1.3114132 0 0 0 -.184486.18448l-.2914544-.0832-.1379776.23875.2185908.21135a1.311413 1.3114132 0 0 0 -.067178.25115l-.2950739.0739v.27595l.2940394.0734a1.311413 1.3114132 0 0 0 .067696.25218l-.2180749.21084.1379776.23875.2914544-.0832a1.311413 1.3114132 0 0 0 .184486.18448l-.083201.29146.2387468.13797.2113545-.21859a1.311413 1.3114132 0 0 0 .2511477.0672l.073898.29507h.2759524l.07338-.29403a1.311413 1.3114132 0 0 0 .2521823-.0677l.2108385.21807.2387468-.13797-.083201-.29146a1.311413 1.3114132 0 0 0 .184486-.18448l.2914544.0832.1379776-.23875-.2185935-.21135a1.311413 1.3114132 0 0 0 .06718-.25115l.2950713-.0739v-.27595l-.2940368-.0734a1.311413 1.3114132 0 0 0 -.067696-.25218l.2180749-.21084-.1379776-.23875-.2914544.0832a1.311413 1.3114132 0 0 0 -.184486-.18448l.083201-.29146-.2387468-.13797-.2113571.21859a1.311413 1.3114132 0 0 0 -.2516637-.0672l-.07338-.29508zm.1379749.92605a.66145832.66145883 0 0 1 .6614583.66145.66145832.66145883 0 0 1 -.6614583.66146.66145832.66145883 0 0 1 -.6614583-.66146.66145832.66145883 0 0 1 .6614583-.66145z"/><g fill-rule="evenodd"><path id="path10695-2" d="m1.3215805 290.89503c-.1372949-.0209-.2674381.0689-.2899066.20256l-.27646837 1.64695c-.071755.42709.0309113.85252.21290756 1.25468l.68264621 1.50898 1.3492717-.35918-.097668-.69037c-.029305-.20685-.1243913-.39989-.2707852-.5488l-.5296828-.53901c-.00802-.008-.013547-.0175-.016536-.0284l-.2036074-.75655c-.035208-.13044-.1683517-.20862-.2971377-.17621h-.0005291l-.081135.0201c-.1264629.032-.2030863.16372-.1684655.29197l.2297033 1.10458-.3573436-1.06995c-.044013-.16309.045315-.31173.1927542-.39584l.030488-.0164.1012878-1.18287c.0000555 0-.0000768-.003 0-.003.015531-.12342-.070194-.23926-.1968897-.26355h-.00265-.00362z" font-variant-ligatures="normal" font-variant-position="normal" font-variant-caps="normal" font-variant-numeric="normal" font-variant-alternates="normal" font-feature-settings="normal" text-indent="0" text-align="start" text-decoration-line="none" text-decoration-style="solid" text-decoration-color="#000000" text-transform="none" text-orientation="mixed" white-space="normal" shape-padding="0" isolation="auto" mix-blend-mode="normal" solid-color="#000000" solid-opacity="1"/><path id="path10698-7" d="m7.1450887 290.89503c.1372923-.0209.2674356.0689.289904.20256l.2764684 1.64695c.071755.42709-.030911.85252-.2129049 1.25468l-.6826462 1.50898-1.3492718-.35918.097668-.69037c.029303-.20685.1243886-.39987.2707852-.5488l.5296826-.53901c.00802-.008.013547-.0175.016536-.0284l.2036048-.75655c.035208-.13044.1683543-.20862.2971403-.17621h.0005291l.081132.0201c.1264629.032.2030862.16372.1684655.29197l-.2297033 1.10458.3573436-1.06995c.044013-.16309-.045313-.31173-.1927516-.39584l-.030491-.0164-.1012852-1.18287c-.0000555 0 .0000768-.003 0-.003-.015531-.12342.070191-.23926.1968871-.26355h.00265.00362z" font-variant-ligatures="normal" font-variant-position="normal" font-variant-caps="normal" font-variant-numeric="normal" font-variant-alternates="normal" font-feature-settings="normal" text-indent="0" text-align="start" text-decoration-line="none" text-decoration-style="solid" text-decoration-color="#000000" text-transform="none" text-orientation="mixed" white-space="normal" shape-padding="0" isolation="auto" mix-blend-mode="normal" solid-color="#000000" solid-opacity="1"/></g></g></svg>