<?xml version="1.0" encoding="utf-8"?>
<!-- Generator: Adobe Illustrator 27.5.0, SVG Export Plug-In . SVG Version: 6.00 Build 0)  -->
<svg version="1.1" id="Layer_1" xmlns="http://www.w3.org/2000/svg" xmlns:xlink="http://www.w3.org/1999/xlink" x="0px" y="0px"
	 viewBox="0 0 512 512" style="enable-background:new 0 0 512 512;" xml:space="preserve">
<style type="text/css">
	.st0{fill:#FFFFFF;}
	.st1{fill:#231F20;}
</style>
<path class="st0" d="M498.7,142.1L344,87.1V16c0-4.4-3.6-8-8-8H176c-4.4,0-8,3.6-8,8v45.7H16c-4.4,0-8,3.6-8,8v339.9
	c0,4.4,3.6,8,8,8h137.3c1.8,4.5,3.9,8.8,6.2,13l-7,15.7c-1.3,3-0.7,6.6,1.6,8.9l22.9,22.9c2.3,2.3,5.9,3,8.9,1.7l15.7-7
	c7.7,4.4,15.9,7.8,24.4,10.1l6.1,16c1.2,3.1,4.2,5.1,7.5,5.1h32.4c3.3,0,6.3-2,7.5-5.1l6.1-16c8.5-2.4,16.7-5.8,24.4-10.1l15.7,7
	c3,1.3,6.6,0.7,8.9-1.7l22.9-22.9c2.3-2.3,3-5.9,1.7-8.9l-7-15.7c2.4-4.2,4.4-8.5,6.2-13H496c4.4,0,8-3.6,8-8V149.6
	C504,146.3,501.9,143.2,498.7,142.1L498.7,142.1z"/>
<path class="st1" d="M328,24v248.3c-0.7,0.1-1.4,0.3-2,0.6l-15.7,7c-7.7-4.3-15.9-7.7-24.5-10.1l-6.1-16c-1.2-3.1-4.2-5.1-7.5-5.1
	h-32.4c-3.3,0-6.3,2-7.5,5.1l-6.1,16c-8.5,2.4-16.7,5.8-24.5,10.1l-15.7-7c-0.7-0.3-1.3-0.5-2-0.6V24L328,24z"/>
<path class="st1" d="M24,77.7h144v206l-13.8,13.8c-2.3,2.3-3,5.9-1.7,8.9l7,15.7c-2.6,4.7-4.9,9.5-6.8,14.5V310c0-4.4-3.6-8-8-8
	h-37.2c-4.4,0-8,3.6-8,8v37.2c0,4.4,3.6,8,8,8h22.4c-1,1.4-1.7,3.1-1.7,4.9v32.4c0,3.3,2,6.3,5.1,7.5l4.1,1.6H24V77.7z"/>
<rect x="115.6" y="318" class="st1" width="21.1" height="21.1"/>
<path class="st1" d="M348.1,398.3c-2.3,9.7-6.2,19-11.4,27.6c-1.4,2.3-1.6,5-0.5,7.5l6.4,14.4l-15.1,15.1l-14.4-6.4
	c-2.4-1.1-5.2-0.9-7.4,0.5c-8.6,5.3-17.9,9.1-27.6,11.4c-2.6,0.6-4.7,2.5-5.6,4.9l-5.7,14.7h-21.4l-5.7-14.7c-0.9-2.5-3-4.3-5.6-4.9
	c-9.7-2.3-19-6.2-27.6-11.4c-2.2-1.4-5-1.6-7.4-0.5l-14.4,6.4l-15.1-15.1l6.4-14.4c1.1-2.4,0.9-5.2-0.5-7.5
	c-5.3-8.6-9.1-17.9-11.4-27.6c-0.6-2.6-2.4-4.7-4.9-5.6l-14.7-5.7v-21.4l14.7-5.7c2.5-0.9,4.3-3,4.9-5.6c2.3-9.7,6.2-19,11.4-27.6
	c1.4-2.2,1.6-5,0.5-7.4l-6.4-14.4l15.1-15.1l14.4,6.4c2.4,1.1,5.2,0.9,7.4-0.5c8.5-5.2,17.8-9.1,27.6-11.4c2.6-0.6,4.7-2.5,5.6-4.9
	l5.7-14.7h21.4l5.7,14.7c0.9,2.5,3,4.3,5.6,4.9c9.8,2.3,19.1,6.2,27.6,11.4c2.2,1.4,5,1.6,7.4,0.5l14.4-6.4l15.1,15.1l-6.4,14.4
	c-1.1,2.4-0.9,5.2,0.5,7.5c5.3,8.5,9.1,17.8,11.4,27.6c0.6,2.6,2.5,4.7,4.9,5.6l14.7,5.7V387l-14.7,5.7
	C350.6,393.6,348.7,395.7,348.1,398.3L348.1,398.3z"/>
<rect x="375.3" y="318" class="st1" width="21.1" height="21.1"/>
<path class="st1" d="M488,401.5H374.5l4.1-1.6c3.1-1.2,5.1-4.2,5.1-7.5v-32.4c0-1.8-0.6-3.5-1.7-4.9h22.4c4.4,0,8-3.6,8-8V310
	c0-4.4-3.6-8-8-8h-37.2c-4.4,0-8,3.6-8,8v26.4c-1.9-5-4.2-9.8-6.8-14.4l7-15.7c1.3-3,0.7-6.6-1.7-8.9L344,283.6V104.1l144,51.2
	V401.5z"/>
<path class="st0" d="M47.3,155.9h97.4c4.4,0,8-3.6,8-8v-35.8c0-4.4-3.6-8-8-8H47.3c-4.4,0-8,3.6-8,8v35.8
	C39.3,152.3,42.9,155.9,47.3,155.9z"/>
<rect x="55.3" y="120.1" class="st1" width="81.4" height="19.8"/>
<path class="st0" d="M362.7,217.6h106.7c4.4,0,8-3.6,8-8v-39.1c0-4.4-3.6-8-8-8H362.7c-4.4,0-8,3.6-8,8v39.1
	C354.7,214,358.2,217.6,362.7,217.6z"/>
<rect x="370.7" y="178.5" class="st1" width="90.7" height="23.1"/>
<path class="st0" d="M207.3,97.1h97.5c4.4,0,8-3.6,8-8V53.4c0-4.4-3.6-8-8-8h-97.5c-4.4,0-8,3.6-8,8v35.8
	C199.3,93.5,202.8,97.1,207.3,97.1z"/>
<rect x="215.3" y="61.4" class="st1" width="81.4" height="19.8"/>
<path class="st0" d="M207.3,180.5h37.2c4.4,0,8-3.6,8-8v-37.2c0-4.4-3.6-8-8-8h-37.2c-4.4,0-8,3.6-8,8v37.2
	C199.3,176.9,202.8,180.5,207.3,180.5z"/>
<rect x="215.3" y="143.4" class="st1" width="21.1" height="21.1"/>
<path class="st0" d="M304.7,127.3h-37.2c-4.4,0-8,3.6-8,8v37.2c0,4.4,3.6,8,8,8h37.2c4.4,0,8-3.6,8-8v-37.2
	C312.7,130.9,309.2,127.3,304.7,127.3z"/>
<rect x="275.6" y="143.4" class="st1" width="21.1" height="21.1"/>
<path class="st0" d="M207.3,240.8h37.2c4.4,0,8-3.6,8-8v-37.2c0-4.4-3.6-8-8-8h-37.2c-4.4,0-8,3.6-8,8v37.2
	C199.3,237.2,202.8,240.8,207.3,240.8z"/>
<rect x="215.3" y="203.7" class="st1" width="21.1" height="21.1"/>
<path class="st0" d="M304.7,187.6h-37.2c-4.4,0-8,3.6-8,8v37.2c0,4.4,3.6,8,8,8h37.2c4.4,0,8-3.6,8-8v-37.2
	C312.7,191.2,309.2,187.6,304.7,187.6z"/>
<rect x="275.6" y="203.7" class="st1" width="21.1" height="21.1"/>
<path class="st0" d="M404.4,241.7h-37.2c-4.4,0-8,3.6-8,8v37.2c0,4.4,3.6,8,8,8h37.2c4.4,0,8-3.6,8-8v-37.2
	C412.5,245.3,408.9,241.7,404.4,241.7z"/>
<rect x="375.3" y="257.7" class="st1" width="21.1" height="21.1"/>
<path class="st0" d="M464.7,241.7h-37.2c-4.4,0-8,3.6-8,8v37.2c0,4.4,3.6,8,8,8h37.2c4.4,0,8-3.6,8-8v-37.2
	C472.7,245.3,469.1,241.7,464.7,241.7z"/>
<rect x="435.6" y="257.7" class="st1" width="21.1" height="21.1"/>
<path class="st0" d="M464.7,302h-37.2c-4.4,0-8,3.6-8,8v37.2c0,4.4,3.6,8,8,8h37.2c4.4,0,8-3.6,8-8V310
	C472.7,305.6,469.1,302,464.7,302z"/>
<rect x="435.6" y="318" class="st1" width="21.1" height="21.1"/>
<path class="st0" d="M84.4,181.4H47.3c-4.4,0-8,3.6-8,8v37.2c0,4.4,3.6,8,8,8h37.2c4.4,0,8-3.6,8-8v-37.2
	C92.5,185,88.9,181.4,84.4,181.4z"/>
<rect x="55.3" y="197.5" class="st1" width="21.1" height="21.1"/>
<path class="st0" d="M144.7,181.4h-37.2c-4.4,0-8,3.6-8,8v37.2c0,4.4,3.6,8,8,8h37.2c4.4,0,8-3.6,8-8v-37.2
	C152.7,185,149.1,181.4,144.7,181.4z"/>
<rect x="115.6" y="197.5" class="st1" width="21.1" height="21.1"/>
<path class="st0" d="M84.4,241.7H47.3c-4.4,0-8,3.6-8,8v37.2c0,4.4,3.6,8,8,8h37.2c4.4,0,8-3.6,8-8v-37.2
	C92.5,245.3,88.9,241.7,84.4,241.7z"/>
<rect x="55.3" y="257.7" class="st1" width="21.1" height="21.1"/>
<path class="st0" d="M144.7,241.7h-37.2c-4.4,0-8,3.6-8,8v37.2c0,4.4,3.6,8,8,8h37.2c4.4,0,8-3.6,8-8v-37.2
	C152.7,245.3,149.1,241.7,144.7,241.7z"/>
<rect x="115.6" y="257.7" class="st1" width="21.1" height="21.1"/>
<path class="st0" d="M84.4,302H47.3c-4.4,0-8,3.6-8,8v37.2c0,4.4,3.6,8,8,8h37.2c4.4,0,8-3.6,8-8V310C92.5,305.6,88.9,302,84.4,302z
	"/>
<rect x="55.3" y="318" class="st1" width="21.1" height="21.1"/>
<path class="st0" d="M256,311.7c-35.6,0-64.5,28.9-64.5,64.5c0,35.6,28.9,64.5,64.5,64.5c35.6,0,64.5-28.9,64.5-64.5
	C320.5,340.7,291.6,311.7,256,311.7z"/>
</svg>
