<svg height="512" viewBox="0 0 32 32" width="512" xmlns="http://www.w3.org/2000/svg"><g id="Layer_2" data-name="Layer 2"><path d="m18.61 27.74-3.58.75a3.183 3.183 0 0 1 -.62.07 3.015 3.015 0 0 1 -2.12-.88 2.984 2.984 0 0 1 -.81-2.74l.75-3.58a2.919 2.919 0 0 1 .82-1.51l9.41-9.41a4.691 4.691 0 0 1 .54-.46v-4.98a3.009 3.009 0 0 0 -3-3h-14a3.009 3.009 0 0 0 -3 3v22a3.009 3.009 0 0 0 3 3h14a3.009 3.009 0 0 0 3-3v-2.96l-2.88 2.88a2.919 2.919 0 0 1 -1.51.82zm-10.61-21.74h10a1 1 0 0 1 0 2h-10a1 1 0 0 1 0-2zm0 4h10a1 1 0 0 1 0 2h-10a1 1 0 0 1 0-2zm-1 5a1 1 0 0 1 1-1h4a1 1 0 0 1 0 2h-4a1 1 0 0 1 -1-1z"/><path d="m28.122 11.85a3.073 3.073 0 0 0 -4.243 0l-9.42 9.419a1 1 0 0 0 -.271.5l-.752 3.581a1 1 0 0 0 .978 1.206.969.969 0 0 0 .206-.022l3.581-.753a1 1 0 0 0 .5-.271l9.419-9.418a3 3 0 0 0 0-4.243z"/></g></svg>