<svg id="Layer_1" enable-background="new 0 0 512 512" height="512" viewBox="0 0 512 512" width="512" xmlns="http://www.w3.org/2000/svg"><path clip-rule="evenodd" d="m496 263.926v24.479l-39.771 15.309c-5.043 21.19-13.444 41.429-24.865 59.977l17.309 38.973-45.933 45.934-38.962-17.304c-18.551 11.424-38.798 19.826-59.992 24.868l-15.305 39.763h-64.96l-15.309-39.772c-21.191-5.043-41.429-13.444-59.977-24.865l-38.973 17.309-45.935-45.933 17.304-38.962c-11.424-18.551-19.825-38.798-24.868-59.993l-39.763-15.303v-24.48h100.699c4.147 73.338 64.925 131.534 139.301 131.534 74.375 0 135.154-58.196 139.301-131.534zm-166.522-81.478-89.066 57.892c-8.609 8.609-8.609 22.565 0 31.174s22.565 8.609 31.174 0zm-65.479-166.374c37.892 1.243 73.563 11.261 105.038 28.102l-50.286 87.098c-16.62-8.384-35.145-13.539-54.752-14.649zm68.567 123.195c15.942 10.484 29.603 24.149 40.089 40.089l87.097-50.286c-19.421-31.128-45.776-57.478-76.901-76.9zm48.085 53.904 87.099-50.287c16.843 31.478 26.876 67.145 28.118 105.04h-100.561c-1.109-19.608-6.269-38.133-14.656-54.753zm-364.519 54.753c1.242-37.893 11.277-73.56 28.117-105.039l87.098 50.286c-8.384 16.621-13.546 35.145-14.656 54.753zm123.211-68.567c10.484-15.942 24.149-29.603 40.089-40.089l-50.285-87.097c-31.126 19.419-57.48 45.772-76.901 76.9zm53.904-48.085-50.286-87.098c31.476-16.838 67.146-26.86 105.038-28.102v100.551c-19.607 1.109-38.133 6.263-54.752 14.649z" fill-rule="evenodd"/></svg>