<svg id="Layer_2_00000031187047785838172360000007097359572160073364_" enable-background="new 0 0 512 512" viewBox="0 0 512 512" xmlns="http://www.w3.org/2000/svg"><g id="Icon"><path id="_19" d="m256 79.8c-48.7 0-88.1 39.5-88.1 88.1s39.4 88.1 88.1 88.1 88.1-39.4 88.1-88.1-39.4-88.1-88.1-88.1zm8.4 136c-2.5 2.2-5.5 3.3-9.2 3.3s-6.7-1.1-9.2-3.3-3.7-5-3.7-8.4 1.2-6.2 3.7-8.4c2.4-2.2 5.5-3.3 9.2-3.3s6.7 1.1 9.2 3.3 3.7 5 3.7 8.4-1.3 6.3-3.7 8.4zm21.8-61.5c-1.5 3.1-4 6.3-7.3 9.6l-7.9 7.4c-2.2 2.2-3.8 4.4-4.7 6.6s-1.3 5.1-1.4 8.6h-19.7c0-6.7.8-12 2.3-15.9s4-7.2 7.4-10.1c3.4-2.8 6-5.4 7.7-7.8 1.8-2.4 2.6-5 2.6-7.8 0-6.9-3-10.4-9-10.4-2.7 0-5 1-6.7 3s-2.6 4.8-2.7 8.2h-23.3c.1-9.2 3-16.3 8.7-21.4s13.7-7.7 24-7.7 18.2 2.4 23.8 7.1 8.4 11.4 8.4 20.2c0 3.8-.8 7.3-2.2 10.4zm-74.7 141c11.9-11.9 27.7-18.4 44.5-18.4s32.6 6.5 44.5 18.4l58.5 58.5 102.8-102.8v-139.2c0-29.2-23.7-52.9-52.9-52.9h-305.4c-29.2 0-52.9 23.7-52.9 52.9v140.2l102.1 102.1zm44.5-225.5c54.1 0 98.1 44 98.1 98.1s-44 98.1-98.1 98.1-98.1-44-98.1-98.1 44-98.1 98.1-98.1zm70.9-20.9h-141.8l33.5-33.5c20.6-20.6 54-20.6 74.7 0zm168.7 168.2-23.8 23.8v-47.6zm-350 144.1-127.4 127.4c-5.7-8.4-9-18.5-9-29.4v-234.4zm-129.3-143.4c-.1-.1-.2-.2-.3-.3l24.6-24.5v49zm486.4 6.4v235c0 10.9-3.3 21-9 29.4l-127.7-127.7zm-209.3 78.2 194 194c-8.3 8.4-19.5 14-31.9 15.4l-395.2.2c-13.9-.5-26.5-6.4-35.7-15.6l194-194c20.7-20.7 54.1-20.7 74.8 0z"/></g></svg>