<svg id="Layer_1" enable-background="new 0 0 512 512" height="512" viewBox="0 0 512 512" width="512" xmlns="http://www.w3.org/2000/svg"><path clip-rule="evenodd" d="m430.61 335.996c-69.494.044-104.186.043-104.075-.003v-174.399h104.072c2.754 0 5 2.246 5 5v164.402c0 2.753-2.244 4.998-4.997 5zm-332.631-204.489h65.9v14.088h-65.9zm87.486 204.486c-57.162.037-91.856.045-104.082.024-2.75-.006-4.99-2.25-4.99-5v-164.423c0-2.754 2.246-5 5-5h104.072zm-65.536-60.06h-18.95c-1.652 0-3 1.348-3 3v16.286c0 1.652 1.348 3 3 3h18.95c1.652 0 3-1.348 3-3v-16.286c0-1.652-1.348-3-3-3zm-18.95-54.282h18.95c1.652 0 3-1.348 3-3v-16.283c0-1.652-1.348-3-3-3h-18.95c-1.652 0-3 1.348-3 3v16.283c0 1.653 1.347 3 3 3zm40.95 0h18.95c1.652 0 3-1.348 3-3v-16.283c0-1.652-1.348-3-3-3h-18.95c-1.652 0-3 1.348-3 3v16.283c0 1.653 1.347 3 3 3zm18.95 16h-18.95c-1.652 0-3 1.348-3 3v16.282c0 1.652 1.348 3 3 3h18.95c1.652 0 3-1.348 3-3v-16.282c0-1.652-1.348-3-3-3zm-40.95 0h-18.95c-1.652 0-3 1.348-3 3v16.282c0 1.652 1.348 3 3 3h18.95c1.652 0 3-1.348 3-3v-16.282c0-1.652-1.348-3-3-3zm40.95 38.282h-18.95c-1.652 0-3 1.348-3 3v16.286c0 1.652 1.348 3 3 3h18.95c1.652 0 3-1.348 3-3v-16.286c0-1.652-1.348-3-3-3zm81.162-27.734h27.919c7.735 0 14.043 5.687 14.043 12.657v75.136h26.533v-263.257c0-2.754-2.246-5-5-5-33.024 0-66.048 0-99.072 0-2.754 0-5 2.246-5 5v263.258h26.533v-75.136c0-6.972 6.308-12.658 14.044-12.658zm-18.991-208.694h24.95v-19.505c0-4.418 3.582-8 8-8s8 3.582 8 8v19.505h24.95v12.231c-21.979 0-43.918 0-65.9 0zm21.95 162.359h-18.95c-1.652 0-3-1.348-3-3v-16.286c0-1.652 1.348-3 3-3h18.95c1.652 0 3 1.348 3 3v16.286c0 1.652-1.348 3-3 3zm0-38.286h-18.95c-1.652 0-3-1.348-3-3v-16.283c0-1.652 1.348-3 3-3h18.95c1.652 0 3 1.348 3 3v16.283c0 1.653-1.348 3-3 3zm0-38.282h-18.95c-1.652 0-3-1.348-3-3v-16.283c0-1.652 1.348-3 3-3h18.95c1.652 0 3 1.348 3 3v16.283c0 1.652-1.348 3-3 3zm19 35.282v-16.283c0-1.652 1.348-3 3-3h18.95c1.652 0 3 1.348 3 3v16.283c0 1.652-1.348 3-3 3h-18.95c-1.653 0-3-1.347-3-3zm21.95-35.282h-18.95c-1.652 0-3-1.348-3-3v-16.283c0-1.652 1.348-3 3-3h18.95c1.652 0 3 1.348 3 3v16.283c0 1.652-1.348 3-3 3zm-21.95 73.568v-16.286c0-1.652 1.348-3 3-3h18.95c1.652 0 3 1.348 3 3v16.286c0 1.652-1.348 3-3 3h-18.95c-1.653 0-3-1.348-3-3zm-51.246 159.518c0 23.895 19.352 43.247 43.247 43.247s43.247-19.351 43.247-43.246zm184.864 0v19.166l-23.468 9.033c-2.976 12.504-7.933 24.446-14.672 35.391l10.214 22.997-27.104 27.105-22.99-10.211c-10.946 6.742-22.893 11.699-35.4 14.675l-9.032 23.462h-38.331l-9.033-23.468c-12.504-2.976-24.446-7.933-35.391-14.672l-22.997 10.214-27.105-27.104 10.211-22.99c-6.742-10.946-11.698-22.894-14.675-35.4l-23.463-9.031v-19.166h74.769c0 36.923 29.926 66.849 66.849 66.849s66.849-29.926 66.849-66.849h74.769zm-49.496-226.875h65.9v14.088h-65.9zm21.95 144.426h-18.95c-1.652 0-3 1.348-3 3v16.286c0 1.652 1.348 3 3 3h18.95c1.652 0 3-1.348 3-3v-16.286c0-1.652-1.348-3-3-3zm-18.95-54.282h18.95c1.652 0 3-1.348 3-3v-16.283c0-1.652-1.348-3-3-3h-18.95c-1.652 0-3 1.348-3 3v16.283c0 1.653 1.347 3 3 3zm40.949 0h18.95c1.652 0 3-1.348 3-3v-16.283c0-1.652-1.348-3-3-3h-18.95c-1.652 0-3 1.348-3 3v16.283c0 1.653 1.348 3 3 3zm18.951 16h-18.95c-1.652 0-3 1.348-3 3v16.282c0 1.652 1.348 3 3 3h18.95c1.652 0 3-1.348 3-3v-16.282c-.001-1.652-1.348-3-3-3zm-40.95 0h-18.95c-1.652 0-3 1.348-3 3v16.282c0 1.652 1.348 3 3 3h18.95c1.652 0 3-1.348 3-3v-16.282c0-1.652-1.348-3-3-3zm40.95 38.282h-18.95c-1.652 0-3 1.348-3 3v16.286c0 1.652 1.348 3 3 3h18.95c1.652 0 3-1.348 3-3v-16.286c-.001-1.652-1.348-3-3-3z" fill-rule="evenodd"/></svg>