<?xml version="1.0" encoding="UTF-8"?>
<svg id="Layer_2" data-name="Layer 2" xmlns="http://www.w3.org/2000/svg" viewBox="0 0 250 291.06">
  <g id="Layer_1-2" data-name="Layer 1">
    <g>
      <path d="m188.62,188.77c4.85,10.07,9.4,19.57,14.03,29.04.27.55,1.15,1.03,1.8,1.11,1.36.17,2.75.05,4.48.05,0-1.47-.01-2.89,0-4.32.06-6.19,3.98-10.05,10.16-10.03,6.7.02,13.4,0,20.1.02,7.11.01,10.73,3.67,10.74,10.8.02,21.78.04,43.57.07,65.35,0,6.64-3.13,10.07-9.8,10.12-13.33.08-26.65-.08-39.98-.09-25.42-.02-50.84-.01-76.26,0-1.82,0-3.66-.06-5.46.16-3.85.46-6.93-.92-9.73-3.44-9.75-8.76-19.54-17.48-29.34-26.19-16.34-14.51-32.68-29.01-49.07-43.46-4.2-3.7-8.23-7.45-9.37-13.28-.99-5.04-.5-9.85,2.39-14.25.23-.34.36-.75.68-1.44-1.15-.06-2.05-.1-2.95-.14-3.49-.16-7.04.06-10.44-.58-6.8-1.28-11.11-7.31-10.64-14.19.47-6.81,6.09-12.17,13.32-12.68.65-.05,1.31-.04,1.97-.04,59.58,0,119.16,0,178.74,0,8.08,0,13.74,4.53,14.9,11.88,1.26,7.95-4.78,15.22-12.98,15.57-2.3.1-4.6.01-7.36.01Zm20.2,39.25c-3.28,0-6.4-.04-9.52.02-1.4.03-2.22-.42-2.86-1.77-5.67-11.96-11.44-23.87-17.1-35.84-.61-1.28-1.32-1.71-2.65-1.7-4.15.05-8.3.04-12.45.03-3,0-3.05-.03-3.04,3.09.02,11.73.05,23.46.13,35.19,0,1.39-.33,2.25-1.64,2.95-13.6,7.25-27.18,14.57-40.75,21.88-4.42,2.38-4.47,2.46-8.3-1.02-14.17-12.89-28.29-25.83-42.43-38.75-7.15-6.53-14.28-13.1-21.51-19.54-3.31-2.95-8-3.22-12.03-1.06-3.42,1.84-5.32,5.7-4.94,9.97.34,3.82,2.84,6.29,5.45,8.64,7.65,6.86,15.33,13.67,23.02,20.47,18.54,16.42,37.1,32.8,55.59,49.27,1.71,1.52,3.36,2.16,5.63,2.16,28.92-.07,57.83-.04,86.75-.04.85,0,1.71,0,2.66,0v-53.94Zm-72.93,4.63c-.17-.47-.27-.89-.48-1.26-7.19-12.98-14.32-25.98-21.61-38.9-2.43-4.31-10.44-5.44-14.39-2.3-4.52,3.59-5.4,8.8-2.33,14.25,2.92,5.2,5.88,10.38,8.89,15.52,3.98,6.77,8,13.52,12.1,20.22.36.58,1.65,1.25,2.07,1.03,5.27-2.75,10.46-5.66,15.76-8.58Zm-14.02-43.93c1.83,3.28,3.38,6.06,4.94,8.84,5.36,9.58,10.75,19.15,16.06,28.76.83,1.51,1.67,1.76,3.11.88,1.48-.91,3.02-1.75,4.61-2.48,1.25-.57,1.62-1.39,1.61-2.73-.07-10.27-.11-20.54-.04-30.8.01-1.93-.51-2.47-2.45-2.45-8.37.09-16.74,0-25.11-.01-.78,0-1.56,0-2.72,0Zm-65.1.2c-.1.17-.21.33-.31.5,14.8,13.43,29.59,26.86,44.39,40.3.16-.16.31-.32.47-.48-.26-.43-.51-.86-.77-1.29-3.79-6.29-7.58-12.59-11.37-18.88-3.58-5.95-4.23-12.12-1.42-18.57.19-.44.27-.94.45-1.58h-31.44Z"/>
      <path d="m71.06,78.49c4.22,0,8.46-.14,12.67.06,2.29.11,3.37-.62,4.07-2.82,2.39-7.48,4.96-14.9,7.52-22.32.49-1.43,1.04-2.92,1.9-4.14,4.11-5.75,12.72-4.82,15.41,1.78,2.03,4.97,3.57,10.15,5.34,15.22,1.27,3.64,2.63,7.24,3.82,10.9.52,1.6,1.73,1.33,2.84,1.33,8.89,0,17.77-.06,26.66-.07,6.37-.01,10.67,4.39,10,10.23-.37,3.25-2.45,5.32-4.99,7.06-6.96,4.78-13.88,9.62-20.88,14.34-1.51,1.02-1.95,1.9-1.28,3.74,2.83,7.87,5.54,15.78,8.14,23.72,1.98,6.05-.61,10.96-6.22,12.22-2.82.63-5.29-.18-7.62-1.79-7.19-4.96-14.44-9.84-21.58-14.86-1.72-1.21-2.95-1.33-4.76-.03-6.91,4.97-13.96,9.75-20.96,14.61-2.89,2-5.94,3.09-9.44,1.76-4.02-1.52-6.57-5.88-5.36-10.01,1.79-6.13,3.95-12.16,5.99-18.22.95-2.82,2.11-5.58,2.92-8.44.18-.62-.5-1.84-1.14-2.29-5.39-3.85-10.87-7.56-16.31-11.35-2.33-1.62-4.77-3.13-6.86-5.02-5.09-4.6-4.06-11.81,2.14-14.74,1.57-.74,3.52-.85,5.3-.9,4.22-.12,8.45-.04,12.67-.04,0,.02,0,.04,0,.06Z"/>
      <path d="m63.57,53.81c-1.2,1.35-2.08,2.79-3.35,3.64-1.59,1.07-3.34.69-4.76-.71-4.19-4.15-8.39-8.29-12.56-12.46-2.73-2.73-5.42-5.49-8.09-8.28-1.2-1.26-1.97-2.73-1.45-4.56.87-3.11,4.4-4.37,6.93-2.29,2.35,1.94,4.49,4.15,6.64,6.31,4.72,4.75,9.42,9.52,14.05,14.36.96,1,1.56,2.35,2.6,3.98Z"/>
      <path d="m177.11,33.42c-.43.66-.93,1.81-1.76,2.64-4.65,4.71-9.37,9.33-14.07,13.99-2.06,2.05-4.09,4.14-6.19,6.15-2.19,2.09-4.54,2.2-6.36.41-1.95-1.93-2.03-4.41.09-6.55,6.8-6.87,13.68-13.66,20.54-20.48,1.43-1.42,3.07-1.94,4.96-1.05,1.81.86,2.65,2.39,2.79,4.9Z"/>
      <path d="m109.66,17.19c0,3.42.01,6.84,0,10.26,0,1.01.04,2.06-.18,3.03-.54,2.36-2.87,3.91-5.25,3.64-1.99-.23-3.64-2.13-3.65-4.49-.05-8.22-.05-16.45,0-24.67.02-2.96,2.08-5.03,4.7-4.95,2.55.08,4.39,2.1,4.42,4.96.04,4.07,0,8.15,0,12.22,0,0-.02,0-.03,0Z"/>
    </g>
  </g>
</svg>