<svg id="Layer_1" height="512" viewBox="0 0 512 512" width="512" xmlns="http://www.w3.org/2000/svg" data-name="Layer 1"><path d="m403.207 304.819h-112.145c9.254-27.768 14.172-51.14 14.983-71.068 1.913-47.013-20.285-65.62-39.243-72.961a11.361 11.361 0 0 0 -2.46-.66c-14.689-2.321-19.919 4.59-23.384 12.4l-.455 1.024a11.974 11.974 0 0 0 -.983 3.538 193.358 193.358 0 0 1 -48.974 107.615v224.05a79.179 79.179 0 0 0 9.267 2.765 12.084 12.084 0 0 0 2.595.321c9.388.1 20.578.151 33.484.151 12.874 0 27.451-.052 43.628-.151h105.648a34.87 34.87 0 0 0 29.87-52.872 34.824 34.824 0 0 0 8.034-46.947 34.835 34.835 0 0 0 5.009-47.9 34.858 34.858 0 0 0 -24.874-59.3zm-236.107-201.138a12.01 12.01 0 0 0 -10.04-8.223l-32.76-3.769-13.7-29.972a11.988 11.988 0 0 0 -21.83 0l-13.7 29.972-32.759 3.769a12 12 0 0 0 -6.745 20.763l24.282 22.3-6.537 32.317a12.012 12.012 0 0 0 17.659 12.834l28.712-16.211 28.718 16.211a12 12 0 0 0 17.659-12.833l-6.537-32.317 24.282-22.3a11.993 11.993 0 0 0 3.295-12.54zm312.634 0a11.992 11.992 0 0 1 -3.293 12.54l-24.284 22.3 6.537 32.317a12 12 0 0 1 -17.658 12.833l-28.712-16.211-28.714 16.211a12 12 0 0 1 -17.659-12.833l6.537-32.317-24.282-22.3a12 12 0 0 1 6.745-20.763l32.749-3.769 13.706-29.972a11.986 11.986 0 0 1 21.827 0l13.706 29.972 32.751 3.769a12.006 12.006 0 0 1 10.04 8.223zm-142.957-44.981a12.07 12.07 0 0 0 -10.042-8.256l-42.174-4.812-17.646-38.642a12.022 12.022 0 0 0 -21.829 0l-17.648 38.639-42.172 4.812a12.02 12.02 0 0 0 -6.745 20.777l31.266 28.722-8.418 41.6a12 12 0 0 0 17.659 12.827l36.972-20.855 36.972 20.857a12 12 0 0 0 17.658-12.827l-8.416-41.6 31.266-28.724a11.975 11.975 0 0 0 3.3-12.521zm-170.231 248.29a23.481 23.481 0 0 0 -19.865-10.979h-82.828a23.509 23.509 0 0 0 -23.488 23.481v169.008a23.52 23.52 0 0 0 23.488 23.5h82.828a23.493 23.493 0 0 0 19.865-10.971zm-95.83 33.1a12 12 0 0 1 12-12h8.807a12 12 0 0 1 0 24h-8.806a12 12 0 0 1 -12.001-12z" fill-rule="evenodd"/></svg>