<svg id="Layer_1" viewBox="0 0 512 512" xmlns="http://www.w3.org/2000/svg" data-name="Layer 1"><path d="m340.698 149.699c9.419 2.521 17.268 8.518 22.098 16.887 9.323 16.149 4.802 36.551-9.839 47.392l-36.131-62.568c7.482-3.245 15.812-3.871 23.872-1.712zm-225.229 236.298 50.42-29.108-66.425-114.892-50.348 29.074c-15.272 8.817-26.22 23.135-30.819 40.311-4.609 17.181-2.29 35.056 6.527 50.323 12.283 21.264 34.632 33.167 57.583 33.167 11.247 0 22.638-2.859 33.061-8.875zm105.188 65.909-42.341-73.328-39.52 22.816 42.331 73.333c6.301 10.895 20.281 14.64 31.181 8.35 5.24-3.027 9-7.954 10.591-13.864 1.581-5.915.786-12.057-2.242-17.306zm157.449-144.366-129.729-224.689c-2.7-4.686-7.14-7.255-12.51-7.255-.101 0-.207.005-.308.005-5.51.101-9.969 2.839-12.553 7.713-4.56 8.605-8.957 17.788-13.609 27.512-19.577 40.889-41.588 86.855-88.489 118.3l66.839 115.635c50.632-24.856 101.433-20.941 146.608-17.451 10.765.834 20.922 1.615 30.665 1.972 5.52.212 10.109-2.285 12.949-7.009 2.849-4.725 2.892-9.96.14-14.732zm-32.612-230.705c-3.447 5.978-1.398 13.623 4.58 17.075 1.962 1.138 4.112 1.678 6.233 1.678 4.319 0 8.528-2.242 10.837-6.252l25.825-44.712c3.447-5.978 1.398-13.623-4.58-17.075-5.983-3.451-13.623-1.403-17.07 4.575l-25.825 44.712zm150.522 137.101c0-6.898-5.592-12.5-12.534-12.5l-51.615.005c-6.898 0-12.5 5.597-12.5 12.5s5.602 12.5 12.5 12.5l51.615-.005c6.942 0 12.534-5.592 12.534-12.5zm-29.889-107.01c-3.471-5.978-11.088-8.026-17.065-4.575l-45.806 26.437c-5.983 3.457-8.031 11.097-4.58 17.08 2.319 4.011 6.518 6.253 10.837 6.253 2.121 0 4.271-.545 6.243-1.678l45.792-26.442c5.978-3.452 8.051-11.097 4.58-17.075z" fill-rule="evenodd"/></svg>