<?xml version="1.0" encoding="UTF-8"?>
<svg id="Layer_2" data-name="Layer 2" xmlns="http://www.w3.org/2000/svg" viewBox="0 0 237.17 239.17">
  <defs>
    <style>
      .cls-1 {
        fill: #fff;
      }

      .cls-2 {
        fill: #010101;
      }
    </style>
  </defs>
  <g id="Layer_1-2" data-name="Layer 1">
    <g>
      <path class="cls-1" d="m185.09,239.17h-15.44c-5.08,0-9.29-3.87-9.78-9l-1.23-12.69c-2.9-1.33-5.66-2.98-8.26-4.93l-11.17,5.19c-4.69,2.16-10.11.38-12.63-4.14l-7.72-13.76c-2.47-4.4-1.3-9.99,2.74-12.99l9.97-7.37c-.19-1.55-.33-3.29-.33-5.1s.15-3.55.33-5.1l-9.97-7.37c-4.04-3-5.21-8.57-2.73-12.99l7.7-13.76c2.54-4.51,7.95-6.29,12.63-4.14l11.18,5.19c2.6-1.95,5.36-3.61,8.26-4.93l1.23-12.7c.5-5.1,4.7-8.97,9.79-8.97h15.44c5.08,0,9.29,3.87,9.78,9l1.23,12.69c2.9,1.34,5.66,2.98,8.26,4.93l11.17-5.19c4.7-2.15,10.11-.38,12.63,4.14l7.72,13.76c2.47,4.4,1.3,9.99-2.74,12.99l-9.97,7.37c.19,1.55.33,3.29.33,5.1s-.15,3.55-.33,5.1l9.97,7.37c4.04,3,5.21,8.57,2.73,12.99l-7.7,13.76c-2.53,4.51-7.96,6.3-12.63,4.14l-11.18-5.19c-2.6,1.95-5.36,3.61-8.26,4.93l-1.23,12.7c-.5,5.1-4.7,8.97-9.79,8.97h0Z"/>
      <path class="cls-2" d="m151.09,201.75c1.18,0,2.33.42,3.26,1.22,3.25,2.81,6.86,4.97,10.71,6.42,1.78.67,3.03,2.29,3.21,4.19l1.51,15.66,15.3-.02,1.38-15.65c.19-1.89,1.44-3.52,3.21-4.19,3.86-1.45,7.46-3.61,10.71-6.42,1.48-1.29,3.57-1.58,5.36-.75l13.98,6.5,7.44-13.73-12.35-9.25c-1.5-1.12-2.26-2.99-1.94-4.84.37-2.11.65-4.26.65-6.48s-.28-4.36-.65-6.48c-.31-1.85.44-3.73,1.94-4.84l12.38-9.17-7.73-13.86-13.71,6.53c-1.78.83-3.88.54-5.36-.76-3.24-2.81-6.86-4.96-10.71-6.42-1.78-.67-3.03-2.29-3.21-4.19l-1.51-15.66-15.3.02-1.38,15.65c-.19,1.89-1.44,3.52-3.21,4.19-3.86,1.45-7.46,3.61-10.71,6.42-1.48,1.28-3.58,1.56-5.36.75l-13.98-6.5-7.44,13.73,12.35,9.25c1.5,1.12,2.26,2.99,1.94,4.84-.37,2.11-.65,4.26-.65,6.48s.28,4.36.65,6.48c.31,1.85-.44,3.73-1.94,4.84l-12.38,9.17,7.73,13.86,13.71-6.53c.68-.31,1.4-.46,2.1-.46h0Z"/>
      <path class="cls-1" d="m177.37,199.31c-13.74,0-24.91-11.18-24.91-24.91s11.17-24.91,24.91-24.91,24.91,11.18,24.91,24.91-11.17,24.91-24.91,24.91Zm0-39.86c-8.24,0-14.95,6.71-14.95,14.95s6.71,14.95,14.95,14.95,14.95-6.71,14.95-14.95-6.71-14.95-14.95-14.95Z"/>
      <path class="cls-2" d="m36.65,149.48H9.16c-5.06,0-9.16,2.98-9.16,6.65v76.4c0,3.67,4.1,6.65,9.16,6.65h27.49c5.06,0,9.16-2.98,9.16-6.65v-76.4c0-3.67-4.1-6.65-9.16-6.65Z"/>
      <path class="cls-2" d="m96.44,109.62h-27.48c-5.06,0-9.16,3.26-9.16,7.28v115c0,4.02,4.1,7.28,9.16,7.28h27.48c5.06,0,9.16-3.26,9.16-7.28v-115c0-4.02-4.1-7.28-9.16-7.28Z"/>
      <path class="cls-2" d="m156.24,49.83h-27.49c-5.06,0-9.16,3.67-9.16,8.2v45.34c0,4.53,4.1,8.2,9.16,8.2h27.49c5.06,0,9.16-3.67,9.16-8.2v-45.34c0-4.53-4.1-8.2-9.16-8.2Z"/>
      <path class="cls-2" d="m216.03,0h-27.49c-5.06,0-9.16,4.1-9.16,9.16v75.14c0,5.06,4.1,9.16,9.16,9.16h27.49c5.06,0,9.16-4.1,9.16-9.16V9.16c0-5.06-4.1-9.16-9.16-9.16Z"/>
    </g>
  </g>
</svg>