<?xml version="1.0" encoding="UTF-8"?>
<svg id="Layer_2" data-name="Layer 2" xmlns="http://www.w3.org/2000/svg" viewBox="0 0 309.32 70.31">
  <defs>
    <style>
      .cls-1 {
        fill: #fff;
      }
    </style>
  </defs>
  <g id="Layer_1-2" data-name="Layer 1">
    <rect class="cls-1" x="100.34" y="60.66" width=".83" height="9.5"/>
    <polygon class="cls-1" points="108.87 70.17 108.07 70.17 108.07 60.53 108.29 60.53 115.12 68.37 115.18 68.37 115.18 60.66 115.98 60.66 115.98 70.27 115.76 70.27 108.92 62.39 108.87 62.39 108.87 70.17"/>
    <polygon class="cls-1" points="128.81 61.41 125.71 61.41 125.71 70.17 124.86 70.17 124.86 61.41 121.73 61.41 121.73 60.66 128.81 60.66 128.81 61.41"/>
    <polygon class="cls-1" points="140.89 69.41 140.89 70.17 134.56 70.17 134.56 60.66 140.5 60.66 140.5 61.41 135.4 61.41 135.4 64.77 140.14 64.77 140.14 65.52 135.4 65.52 135.4 69.41 140.89 69.41"/>
    <path class="cls-1" d="m153.77,70.17h-1.15l-3.59-3.99v-.14c1.11-.01,1.95-.26,2.53-.72.59-.47.88-1.02.88-1.66,0-1.42-.99-2.25-2.47-2.25h-2.28v8.77h-.85v-9.49h3.24c.85,0,1.58.26,2.23.79.65.52.98,1.24.98,2.15,0,.72-.27,1.36-.8,1.93-.53.56-1.22.89-2.1,1l3.39,3.62Z"/>
    <polygon class="cls-1" points="160.42 70.17 159.62 70.17 159.62 60.53 159.84 60.53 166.67 68.37 166.72 68.37 166.72 60.66 167.53 60.66 167.53 70.27 167.31 70.27 160.47 62.39 160.42 62.39 160.42 70.17"/>
    <path class="cls-1" d="m180.77,70.17l-.98-2.31h-4.69l-.98,2.31h-.85l4.09-9.57h.2l4.06,9.57h-.86Zm-3.36-7.79l-2.01,4.78h4.09l-2.03-4.78h-.06Z"/>
    <polygon class="cls-1" points="192.45 61.41 189.35 61.41 189.35 70.17 188.5 70.17 188.5 61.41 185.37 61.41 185.37 60.66 192.45 60.66 192.45 61.41"/>
    <rect class="cls-1" x="198.34" y="60.66" width=".83" height="9.5"/>
    <path class="cls-1" d="m206.94,68.93c-.87-.92-1.31-2.1-1.31-3.52s.47-2.53,1.42-3.47c.96-.95,2.11-1.42,3.46-1.42s2.54.47,3.46,1.42c.92.93,1.38,2.1,1.38,3.47s-.46,2.55-1.38,3.49c-.9.93-2.07,1.41-3.46,1.41-1.51,0-2.7-.46-3.58-1.38m.65-.55c.73.78,1.71,1.16,2.93,1.16s2.15-.4,2.89-1.19c.75-.8,1.12-1.78,1.12-2.94s-.37-2.14-1.14-2.93c-.75-.81-1.71-1.21-2.87-1.21s-2.12.4-2.89,1.19c-.75.79-1.12,1.78-1.12,2.94s.36,2.2,1.08,2.97"/>
    <polygon class="cls-1" points="222.48 70.17 221.68 70.17 221.68 60.53 221.9 60.53 228.73 68.37 228.79 68.37 228.79 60.66 229.59 60.66 229.59 70.27 229.38 70.27 222.53 62.39 222.48 62.39 222.48 70.17"/>
    <path class="cls-1" d="m242.83,70.17l-.98-2.31h-4.7l-.98,2.31h-.85l4.09-9.57h.2l4.06,9.57h-.86Zm-3.36-7.79l-2.01,4.78h4.09l-2.03-4.78h-.06Z"/>
    <polygon class="cls-1" points="249.45 60.66 250.28 60.66 250.28 69.41 255.43 69.41 255.43 70.17 249.45 70.17 249.45 60.66"/>
    <path class="cls-1" d="m210.32.14c-4.84,0-9.85.95-14.92,2.81l-1.43.53,1.86,5.76,1.56-.59c4.41-1.68,8.84-2.53,13.19-2.53,4.06,0,7.16.82,9.23,2.43,1.95,1.51,2.93,4.23,2.93,8.07v.78h-9.45c-13.84,0-20.86,4.9-20.86,14.56,0,4.81,1.87,8.5,5.57,10.96,3.49,2.33,8.34,3.51,14.42,3.51,4.98,0,10.14-.79,15.35-2.35l1.13-.34v-27.12c0-7.52-3.22-16.48-18.59-16.48m12.43,23.16v15.97c-2.93.78-6.37,1.18-10.24,1.18-13.83,0-13.83-6.39-13.83-8.49s0-8.66,14.88-8.66h9.18Z"/>
    <path class="cls-1" d="m116.83.14c-4.83,0-9.85.95-14.92,2.81l-1.43.53,1.86,5.76,1.56-.59c4.41-1.67,8.85-2.52,13.19-2.52,4.06,0,7.16.82,9.23,2.43,1.95,1.51,2.93,4.23,2.93,8.07v.77h-9.45c-13.84,0-20.86,4.9-20.86,14.56,0,4.81,1.88,8.5,5.57,10.96,3.49,2.33,8.34,3.51,14.42,3.51,4.98,0,10.14-.79,15.35-2.35l1.14-.34v-27.12c0-7.52-3.22-16.48-18.59-16.48m12.43,39.12c-2.93.78-6.37,1.18-10.24,1.18-13.83,0-13.83-6.39-13.83-8.49s0-8.66,14.88-8.66h9.18v15.96Z"/>
    <path class="cls-1" d="m255.28,1.46c-2.15-.76-4.86-1.14-8.06-1.14-2.22,0-4.53.28-6.89.83-2.37.55-4.07,1.08-5.18,1.6l-.91.43v42.46h6.16V7.41c2.29-.74,4.67-1.11,7.08-1.11,2.53,0,4.49.26,5.83.77l1.55.6,1.89-5.69-1.47-.52Z"/>
    <path class="cls-1" d="m302.55,0l-17.7,37.23L266.94,0h-6.76l21.25,44.42-1.88,3.96c-2.49,5.48-4.66,9.23-6.46,11.13-1.63,1.73-3.69,2.57-6.29,2.57-1.16,0-2.19-.23-3.15-.71l-1.64-.82-1.93,5.81,1.41.55c2.01.78,3.75,1.16,5.3,1.16,4.42,0,7.89-1.34,10.3-3.97,2.23-2.44,5.01-7.16,8.51-14.44L309.32,0h-6.77Z"/>
    <path class="cls-1" d="m180.69,42.11h0c4.28-4.59,6.44-10.46,6.44-17.47s-2.17-12.89-6.44-17.5c-4.31-4.64-9.97-7-16.82-7s-12.51,2.34-16.79,6.96c-4.25,4.58-6.41,10.48-6.41,17.54s2.16,12.88,6.41,17.46c2.17,2.35,4.7,4.11,7.56,5.27-.36.07-.7.14-1.03.23l-1.41.36.87,5.4,1.69-.43c1.37-.35,3.21-.53,5.48-.53,7.03,0,13.09,1.71,18.02,5.09l1.69,1.16,2-5.48-1.02-.7c-2.92-1.99-6.22-3.46-9.87-4.38,3.72-1.09,6.94-3.09,9.63-5.98m-16.82,1.31c-5.33,0-9.45-1.7-12.59-5.2-3.14-3.5-4.74-8.07-4.74-13.58s1.6-10.1,4.74-13.62c3.14-3.52,7.26-5.23,12.59-5.23s9.51,1.71,12.66,5.23c3.15,3.52,4.74,8.11,4.74,13.62s-1.59,10.08-4.74,13.58c-3.14,3.5-7.29,5.2-12.66,5.2"/>
    <polygon class="cls-1" points="16.13 70.18 16.13 70.18 23.67 54.68 30.79 40.04 39 23.18 44.29 35.08 46.5 40.04 41.87 40.04 34.75 54.68 53.02 54.69 59.92 70.19 80.76 70.19 73.86 54.69 67.34 40.05 55.17 12.71 49.88 .97 49.45 0 47.44 0 38.02 21 29.54 40.04 23.02 54.68 16.13 70.18"/>
    <polygon class="cls-1" points="0 70.18 0 70.18 7.55 54.68 14.67 40.04 31.29 5.88 34.16 0 31.25 0 29.96 2.89 13.42 40.04 6.9 54.68 6.9 54.68 0 70.18"/>
    <polygon class="cls-1" points="8.06 70.18 8.07 70.18 15.61 54.68 22.73 40.04 35.14 14.53 42.21 0 39.29 0 33.99 11.94 21.48 40.04 14.96 54.68 14.96 54.68 8.06 70.18"/>
  </g>
</svg>