<?xml version="1.0" encoding="utf-8"?>
<!-- Generator: Adobe Illustrator 27.4.1, SVG Export Plug-In . SVG Version: 6.00 Build 0)  -->
<svg version="1.1" id="Layer_1" xmlns="http://www.w3.org/2000/svg" xmlns:xlink="http://www.w3.org/1999/xlink" x="0px" y="0px"
	 viewBox="0 0 514.5 447.1" style="enable-background:new 0 0 514.5 447.1;" xml:space="preserve">
<style type="text/css">
	.st0{fill:#5480C0;}
</style>
<g>
	<polygon class="st0" points="302.2,0 242.2,133.8 188.2,255.1 146.7,348.3 102.7,447.1 102.8,447.1 150.8,348.3 196.2,255.1 
		248.4,147.7 282.1,223.5 296.2,255.1 266.7,255.1 221.3,348.3 337.7,348.4 381.7,447.1 514.5,447.1 470.5,348.4 429,255.1 
		351.5,81 317.8,6.2 315,0 	"/>
	<polygon class="st0" points="199,0 190.8,18.4 85.5,255.1 44,348.3 43.9,348.3 0,447.1 0,447.1 48.1,348.3 93.4,255.1 199.3,37.5 
		217.6,0 	"/>
	<polygon class="st0" points="216.5,76.1 136.8,255.1 95.3,348.3 95.3,348.3 51.3,447.1 51.4,447.1 99.4,348.3 144.8,255.1 
		223.9,92.6 268.9,0 250.3,0 	"/>
</g>
</svg>
